<?xml version="1.0" encoding="UTF-8"?><svg id="Divider" xmlns="http://www.w3.org/2000/svg" viewBox="0 0 1208 128"><defs><style>.cls-1{fill:#fff;stroke-width:0px;}</style></defs><path id="Divider_05" class="cls-1" d="M753.23,72.66c-14.92,0-18.42-7.41-19.9-19.08-5.39,9.39-15.99,15-27.2,16.94-21.73-.2-48.31-4.58-65.15-19.78-16.84-15.21-36.99-50.74-36.99-50.74,0,0-20.15,35.53-36.99,50.74-16.84,15.21-43.42,19.58-65.15,19.78-11.21-1.94-21.8-7.56-27.2-16.94-1.47,11.67-4.97,19.08-19.9,19.08H0v23.84h276.02s-3.19-1.98-1.84-4.94c1.35-2.96,6.14-9.26,32.18-9.26s34.39,4.82,34.39,10-8.84,5.93-8.84,5.93h166.16c9.76,0,15.11,7.04,10.5,14.27,5.53-6.86,15.47-14.08,27.45-14.08h28.74c14.74,0,31.93,14.55,39.26,29.58,7.33-15.04,24.52-29.58,39.26-29.58h28.74c11.97,0,21.92,7.23,27.45,14.08-4.61-7.23.74-14.27,10.5-14.27h166.16s-8.84-.74-8.84-5.93,8.35-10,34.39-10,30.82,6.3,32.18,9.26c1.35,2.96-1.84,4.94-1.84,4.94h276.02v-23.84h-454.77ZM587.46,71.31h-30.55c10.11-5.82,24.77-20.57,30.55-30.73v30.73ZM620.54,71.31v-30.73c5.79,10.17,20.45,24.91,30.55,30.73h-30.55Z"/></svg>