<?xml version="1.0" encoding="UTF-8"?><svg id="Arrow" xmlns="http://www.w3.org/2000/svg" viewBox="0 0 484 586"><defs><style>.cls-1{fill:#fff;stroke-width:0px;}</style></defs><g id="Arrow_05"><path class="cls-1" d="M77.65,288.65s-.06.09-.09.13c0,0,.04-.05.09-.13Z"/><path class="cls-1" d="M78.18,287.88c-.26.37-.43.62-.53.76.16-.25.33-.5.53-.76Z"/><path class="cls-1" d="M405.82,287.88c.2.26.37.51.53.76-.1-.14-.27-.39-.53-.76Z"/><path class="cls-1" d="M406.35,288.65c.05.08.09.13.09.13-.03-.04-.06-.09-.09-.13Z"/><path class="cls-1" d="M444.06,345.98c-9.01,5.28-33.51-22.55-39.41-32-7.82-11.26-11.6-18.81-12.98-24.03-3.24-14.68,9.91-7.6,14.15-2.07-7.55-10.87-82.69-119.11-87.62-126.2-5.15-7.34-8.24-20.3,2.42-21.39-11.32-1.99-22.21-7.34-29.62-18.11-13.63-20.9-20.61-26.09-28.36-45.22-8.76-23.37-15.64-51.81-20.64-76.95-5,25.14-11.89,53.58-20.64,76.95-7.74,19.13-14.73,24.32-28.36,45.22-7.41,10.77-18.3,16.13-29.62,18.11,10.65,1.09,7.57,14.06,2.42,21.39-4.92,7.09-80.07,115.33-87.62,126.2,4.25-5.54,17.39-12.61,14.15,2.07-1.38,5.22-5.16,12.76-12.98,24.03-5.9,9.46-30.41,37.28-39.41,32L0,403.51h143.26c8.76,12.62,18.97,27.32,22.97,33.09,6.51-11.03,23.22,7.84,13.63,14.26-3.1,2.16-5.07.28-5.07.28,0,0,36.97,53.26,39.28,56.58,2.72,4.11,2.02,12.82-.89,16.96,9.52-11.85,13.8,3.43,18.45,8.57,5.81,11.89,8.12,36.44,10.37,52.74,2.24-16.3,4.56-40.85,10.37-52.74,4.65-5.15,8.93-20.43,18.45-8.57-2.91-4.14-3.6-12.85-.89-16.96,2.31-3.32,39.28-56.58,39.28-56.58,0,0-1.96,1.88-5.07-.28-9.59-6.42,7.12-25.29,13.63-14.26,4.01-5.77,14.21-20.47,22.97-33.09h143.26l-39.94-57.53ZM250.64,111.3s7.4,10.66,15.95,22.98c-10.92.03-17.54,14.69-19.68,25.25,2-25.85,3.72-48.23,3.72-48.23ZM233.36,111.3s1.73,22.37,3.72,48.23c-2.13-10.56-8.75-25.22-19.68-25.25,8.55-12.32,15.95-22.98,15.95-22.98ZM238.84,508.98s-2.71-3.91-5.85-8.42c4.17-6.14,6.41-20.28,7.21-28.89-.73,20-1.36,37.31-1.36,37.31ZM245.16,508.98s-.63-17.31-1.36-37.31c.8,8.61,3.04,22.75,7.21,28.89-3.13,4.51-5.85,8.42-5.85,8.42ZM271.1,473.36c-4.64,5.16-7.6-4.31-10.5-9.26,2.08,7.02,2.72,14.41.73,20.6-4.14,5.71-10.53,9.31-14.29-4.7-4.19-15.96-5.05-41.55-5.04-57.59.02,16.05-.84,41.63-5.04,57.59-3.77,14.01-10.15,10.4-14.29,4.7-1.99-6.19-1.34-13.58.73-20.6-2.9,4.96-5.86,14.42-10.5,9.26-4.28-6.16-42.78-61.63-48.49-69.85h155.18c-5.71,8.22-44.21,63.69-48.49,69.85ZM242,379.78H45.33l119.66-172.36c6.99-10.07,14.68-8.22,24.9-2.59-5.13-9.02-4.91-19.46-.64-28.63,11.3-15.92,28.73-33.39,39-21.69,12.9,17.1,13.35,48.07,13.74,68.68.39-20.61.85-51.58,13.74-68.68,10.28-11.71,27.71,5.76,39,21.69,4.28,9.17,4.5,19.61-.64,28.63,10.22-5.64,17.9-7.49,24.9,2.59l119.66,172.36h-196.67Z"/></g></svg>