<?xml version="1.0" encoding="UTF-8"?><svg id="Callout" xmlns="http://www.w3.org/2000/svg" viewBox="0 0 442 204"><defs><style>.cls-1{fill:#fff;stroke-width:0px;}</style></defs><g id="Callout_03"><path class="cls-1" d="M204.57,74.34c8.02,2.17,14.28,19.02,16.43,27.07,2.16-8.04,8.42-24.9,16.43-27.07-8.02-2.17-14.28-19.02-16.43-27.07-2.16,8.04-8.42,24.9-16.43,27.07Z"/><path class="cls-1" d="M189.85,152.7c15.19,4.1,27.06,36.05,31.15,51.3,4.09-15.25,15.96-47.19,31.15-51.3-15.19-4.1-27.06-36.05-31.15-51.3-4.09,15.25-15.96,47.19-31.15,51.3Z"/><path class="cls-1" d="M408.06,0H33.94C31.73,0,0,1.79,0,4.01s31.73,4.01,33.94,4.01h155.18c18.2,3.73,31.88,19.89,31.88,39.26h0c0-19.37,13.69-35.52,31.88-39.26h155.18c2.2,0,33.94-1.79,33.94-4.01s-31.73-4.01-33.94-4.01Z"/></g></svg>