<?xml version="1.0" encoding="UTF-8"?>
<svg id="Callout" xmlns="http://www.w3.org/2000/svg" version="1.1" viewBox="0 0 442 135">
  <!-- Generator: Adobe Illustrator 29.8.3, SVG Export Plug-In . SVG Version: 2.1.1 Build 3)  -->
  <defs>
    <style>
      .st0 {
        fill: #fff;
      }
    </style>
  </defs>
  <g id="Callout_03">
    <path class="st0" d="M204.6,107.9c8,2.2,14.3,19,16.4,27.1,2.2-8,8.4-24.9,16.4-27.1-8-2.2-14.3-19-16.4-27.1-2.2,8-8.4,24.9-16.4,27.1Z"/>
    <path class="st0" d="M408.1,0H33.9C31.7,0,0,1.8,0,4s31.7,37.6,33.9,37.6h155.2c18.2,3.7,31.9,19.9,31.9,39.3h0c0-19.4,13.7-35.5,31.9-39.3h155.2c2.2,0,33.9-35.4,33.9-37.6s-31.7-4-33.9-4Z"/>
  </g>
</svg>