<?xml version="1.0" encoding="UTF-8"?>
<svg id="Layer_2" data-name="Layer 2" xmlns="http://www.w3.org/2000/svg" viewBox="0 0 343.7 418.25">
  <defs>
    <style>
      .cls-1 {
        fill: #181818;
      }

      .cls-2 {
        fill: #bba185;
      }
    </style>
  </defs>
  <g id="Layer_3" data-name="Layer 3">
    <g>
      <polygon class="cls-1" points="274.25 167.53 295.56 146.23 295.56 48.14 193.16 48.14 171.85 69.45 150.54 48.14 48.14 48.14 48.14 146.23 69.45 167.53 48.14 188.84 48.14 251.45 155.07 358.39 171.85 341.61 188.63 358.39 295.56 251.45 295.56 188.84 274.25 167.53"/>
      <path class="cls-2" d="M343.7,167.53l-17.67-17.67V17.67h-136.5L171.85,0l-17.67,17.67H17.67v132.19L0,167.53l17.67,17.67v78.87l154.18,154.18,154.18-154.18v-78.87l17.67-17.67ZM191.01,384.7l-19.16-19.16-19.16,19.16-124.84-124.84v-74.65l17.67-17.67-17.67-17.67V27.85h126.33l17.67,17.67,17.67-17.67h126.33v122.02l-17.67,17.67,17.67,17.67v74.65l-124.84,124.84Z"/>
      <g>
        <path class="cls-2" d="M261.27,216.56c-27.37-10.17-63.2-23.99-89.42-4.39-26.22-19.6-62.05-5.78-89.42,4.39.08-7.59,2.13-14.81,6.01-21.42,13.91,6.11,27.52-.8,40.72-1.7,15.13-1.03,29.61,1.35,42.69,9.1,13.09-7.75,27.56-10.12,42.69-9.1,13.2.9,26.81,7.81,40.72,1.7,3.88,6.62,5.92,13.83,6.01,21.42Z"/>
        <path class="cls-2" d="M187.1,260.75c-.62,2.23-1.41,4.14-2.18,5.68-1.56-.83-3.18-1.52-4.87-2.04.97-2.49,1.9-5.76,1.95-9.61.23-15.64-13.77-25.57-16.06-27.14-12.04-8.2-25.02-6.54-28.37-6.01.24,1.68.38,3.95.05,6.58-.27,2.14-.77,3.95-1.28,5.36-1.54-2.77-3.64-5.94-6.47-9.16-5.43-6.17-11.27-9.93-15.49-12.15,0,0,.03,0,.05-.02,8.51-2.28,17.09-3.82,25.41-3.82,5.38,0,13.98.63,23.38,5.5,14.07,7.3,22.52,20.82,24.37,31.1,1.03,5.74.37,12.59-.49,15.7v.02Z"/>
        <path class="cls-2" d="M167.77,237.23c-3.34,4.49-6.19,10.44-6.09,17.55.05,3.85.96,7.12,1.95,9.61-1.68.52-3.31,1.2-4.87,2.04-.76-1.54-1.56-3.44-2.18-5.68-.86-3.11-1.52-9.96-.49-15.7.72-4.05,2.47-8.59,5.2-13.07.38.24.77.49,1.15.75.85.58,3,2.14,5.32,4.51v-.02Z"/>
        <path class="cls-2" d="M229.31,212.27c-4.21,2.21-10.06,5.97-15.49,12.15-2.83,3.22-4.93,6.39-6.47,9.16-.51-1.41-1.01-3.22-1.28-5.36-.33-2.63-.19-4.9.05-6.58-2.73-.43-11.87-1.62-21.69,2.41-2.13-2.83-4.62-5.56-7.46-8.07,1.13-.72,2.29-1.39,3.5-2.01,9.39-4.87,17.99-5.5,23.38-5.5,8.31,0,16.89,1.54,25.41,3.82.02,0,.04,0,.05.02v-.02Z"/>
        <path class="cls-2" d="M113.48,150.21c.57,6.43,4.98,14.72,6.67,21.22-.91.09-1.81.2-2.72.32-3.85.48-6.57,1.01-8.76,1.43-2.3.44-3.78.73-5.48.78-1.3-2.09-3.07-5.33-4.34-9.55-5.45-18.04,3.91-34.77,4.35-35.53,3.74-6.47,7.48-9.75,13.36-19.94,1.24-2.16,2.41-4.71,3.46-8,1.72-5.38,2.29-10.07,2.49-13.22,5.19,22.42-11,40.36-9.05,62.48h0Z"/>
        <path class="cls-2" d="M230.21,150.21c-.57,6.43-4.98,14.72-6.67,21.22.91.09,1.81.2,2.72.32,3.85.48,6.57,1.01,8.76,1.43,2.3.44,3.78.73,5.48.78,1.3-2.09,3.07-5.33,4.34-9.55,5.45-18.04-3.91-34.77-4.35-35.53-3.74-6.47-7.48-9.75-13.36-19.94-1.24-2.16-2.41-4.71-3.46-8-1.72-5.37-2.29-10.06-2.49-13.21-5.19,22.42,11,40.36,9.05,62.48h0Z"/>
        <path class="cls-2" d="M171.85,269.32c-6.2,0-11.81,2.62-15.74,6.81.61-.08,1.23-.13,1.85-.13,6.31,0,11.72,3.94,13.89,9.49,2.18-5.54,7.58-9.49,13.89-9.49.63,0,1.24.04,1.85.13-3.94-4.2-9.54-6.81-15.74-6.81ZM171.85,277.92c-1.42,0-2.57-1.15-2.57-2.57s1.15-2.57,2.57-2.57,2.57,1.15,2.57,2.57-1.15,2.57-2.57,2.57Z"/>
        <path class="cls-2" d="M171.85,161.89c6.82,0,12.35-5.53,12.35-12.35s-5.53-12.35-12.35-12.35-12.35,5.53-12.35,12.35,5.53,12.35,12.35,12.35Z"/>
        <path class="cls-2" d="M171,263.74c-1.3-1.9-2.85-5-2.85-8.94s1.55-7.03,2.85-8.94l.85-1.24.85,1.24c1.3,1.9,2.85,5,2.85,8.94s-1.55,7.03-2.85,8.94l-.85,1.24-.85-1.24Z"/>
        <path class="cls-2" d="M259.87,173.47c-6.64,14.73-13.31,17.47-17.07,17.99-2.16.3-6.29-.48-14.53-2.05-4.76-.91-7.9-1.79-13.31-2.14-2.35-.15-4.69-.24-6.96-.24-6.3,0-12.33.63-18.06,1.9l-3.77-5.78c5.33-2.23,10.12-5.73,13.87-10.12l.48-.58c5.21-6.39,8.07-14.37,8.07-22.59,0-19.92-16.49-36.14-36.76-36.14s-36.76,16.22-36.76,36.14c0,8.25,2.89,16.28,8.15,22.68l.41.48c3.73,4.39,8.53,7.91,13.86,10.12l-3.77,5.78c-5.73-1.27-11.76-1.9-18.06-1.9-2.26,0-4.6.08-6.96.24-5.42.35-8.55,1.24-13.31,2.14-8.24,1.57-12.37,2.34-14.53,2.05-3.76-.52-10.44-3.26-17.07-17.99,7.58,5.35,13.85,6.58,18.23,6.66,4.86.1,7.54-1.18,16.15-2.26,6.09-.77,12.92-1.08,17.82-.61-6.97-7.38-11.19-16.94-11.19-27.41,0-11.69,5.26-22.27,13.77-29.93,8.51-7.66,20.26-12.39,33.25-12.39,25.96,0,47.02,18.94,47.02,42.31,0,10.45-4.21,20.03-11.19,27.41,4.9-.47,11.72-.16,17.82.61,8.6,1.09,11.29,2.37,16.15,2.26,4.38-.08,10.65-1.3,18.23-6.66h0Z"/>
        <path class="cls-2" d="M164.36,173.08c-8.78-1.84-16.28-9.4-18.32-18.3-4.1-16.45,8.94-32.49,25.81-32.47,16.91-.05,29.89,16.01,25.81,32.47-2.04,8.9-9.55,16.47-18.33,18.3,5.37-2.32,9.82-6.3,12.45-11.2,8.41-15.4-2.31-34.41-19.93-34.5-7.91-.07-15.66,4.37-19.64,11.22-7.45,12.57-1.37,28.9,12.14,34.46h0Z"/>
      </g>
    </g>
  </g>
</svg>