<?xml version="1.0" encoding="UTF-8"?>
<svg id="Layer_2" data-name="Layer 2" xmlns="http://www.w3.org/2000/svg" viewBox="0 0 343.7 418.25">
  <defs>
    <style>
      .cls-1 {
        fill: #181818;
      }

      .cls-2, .cls-3 {
        fill: #bba185;
      }

      .cls-3 {
        fill-rule: evenodd;
      }
    </style>
  </defs>
  <g id="Layer_3" data-name="Layer 3">
    <g>
      <polygon class="cls-1" points="274.25 167.53 295.56 146.23 295.56 48.14 193.16 48.14 171.85 69.45 150.54 48.14 48.14 48.14 48.14 146.23 69.45 167.53 48.14 188.84 48.14 251.45 155.07 358.39 171.85 341.61 188.63 358.39 295.56 251.45 295.56 188.84 274.25 167.53"/>
      <path class="cls-2" d="M343.7,167.53l-17.67-17.67V17.67h-136.5L171.85,0l-17.67,17.67H17.67v132.19L0,167.53l17.67,17.67v78.87l154.18,154.18,154.18-154.18v-78.87l17.67-17.67ZM191.01,384.7l-19.16-19.16-19.16,19.16-124.84-124.84v-74.65l17.67-17.67-17.67-17.67V27.85h126.33l17.67,17.67,17.67-17.67h126.33v122.02l-17.67,17.67,17.67,17.67v74.65l-124.84,124.84Z"/>
    </g>
    <g>
      <path class="cls-3" d="M157.7,282.88c-6.17,6.72-12.35,13.45-18.52,20.17,5.31-.25,12.81-2.5,20.82-7.34,2.01-1.21,4.29-1.46,5.82-2.75-.34-1.31-1.1-3.55-2.88-5.81-1.88-2.38-4.02-3.66-5.24-4.28Z"/>
      <path class="cls-3" d="M181.52,287.16c-1.79,2.26-2.54,4.5-2.88,5.81,1.54,1.28,3.3,2.57,5.3,3.79,8.02,4.84,16.03,6.05,21.34,6.3-6.17-6.72-12.35-13.45-18.52-20.17-1.22.62-3.36,1.9-5.24,4.28Z"/>
      <polygon class="cls-3" points="189.95 139.11 153.75 139.11 151.17 154.44 192.53 154.44 189.95 139.11"/>
      <path class="cls-3" d="M221.41,228.83l10.39-1.03c-1.36,3.41-5.59,8.47-5.59,8.47,0,0-14.18,17.31-29.77,14.77-16.26-2.64-16.34-28.44-16.34-28.44v-64.51h-16.49v64.51s-.08,25.8-16.34,28.44c-15.59,2.53-29.77-14.77-29.77-14.77,0,0-4.23-5.06-5.59-8.47l10.39,1.03s-8.17-5.13-20.95-29.14c0,0-4.47,19.02-1.17,35.69l4.85-6.4s2.84,20.46,19.54,31.42c16.7,10.96,30.49,13.38,36.05,18.24,5.56,4.86,8.5,7.31,11.24,14.34h0s0,0,0,0h0s0,0,0,0c2.74-7.03,5.68-9.48,11.24-14.34,5.56-4.86,19.35-7.28,36.05-18.24,16.7-10.97,19.54-31.42,19.54-31.42l4.85,6.4c3.3-16.67-1.17-35.69-1.17-35.69-12.79,24.01-20.95,29.14-20.95,29.14ZM173.85,275.63l-2,8.24-2-8.24v-55.5l2-3.74,2,3.74v55.5Z"/>
      <path class="cls-3" d="M120.77,185.19c6.29-2.19,13.37-8.68,20.28-6.46.16-3.88-.31-7.11-4.89-6.9-2.14.11-2.55.57-5.86,1.54l-15.12-32.46c-14.75,3.5-24.95,16.91-19.68,32.28,3.97,11.6,13.76,16,25.27,12ZM107.69,148.78l14.36,30.83s-14.12,6.25-19.87-6.97c0,0-7.06-14.29,5.51-23.86Z"/>
      <path class="cls-3" d="M171.85,110.72c-4.52,0-8.2,2.98-8.2,6.66v17.92h16.39v-17.92c0-3.67-3.67-6.66-8.2-6.66Z"/>
      <path class="cls-3" d="M114.02,138.43c-1.04-2.24-4-3.07-6.6-1.86-2.47,1.15-3.73,3.73-2.96,5.91,2.84-1.83,6.07-3.22,9.57-4.04Z"/>
      <path class="cls-3" d="M228.52,140.91l-15.12,32.46c-3.32-.97-3.73-1.44-5.86-1.54-4.58-.2-5.05,3.03-4.89,6.9,6.91-2.21,14,4.28,20.28,6.46,11.51,3.99,21.3-.41,25.27-12,5.27-15.37-4.93-28.78-19.68-32.28ZM241.52,172.64c-5.75,13.22-19.87,6.97-19.87,6.97l14.36-30.83c12.57,9.57,5.51,23.86,5.51,23.86Z"/>
      <polygon class="cls-3" points="144.83 154.44 147.65 154.44 150.2 139.11 138.42 139.11 144.83 146.03 144.83 154.44"/>
      <path class="cls-3" d="M159.46,131.44v-13.29c-1.48-3.31-1.66-7.32.11-11.39,2.03-4.67,6.81-7.55,11.9-7.55h.05c6.57,0,12.52,4.53,13.67,11,.51,2.85.11,5.58-.94,7.94v13.29c8.44-5.56,12.92-16.66,8.23-28.11-3.29-8.04-11.35-13.1-20.04-13.1h0c-11.79,0-22.06,8.82-23.02,20.57-.7,8.61,3.47,16.31,10.05,20.64Z"/>
      <path class="cls-3" d="M236.28,136.57c-2.6-1.21-5.56-.38-6.6,1.86,3.49.83,6.73,2.21,9.57,4.04.77-2.17-.5-4.76-2.96-5.91Z"/>
      <path class="cls-3" d="M153.51,223.2l-18.27-39.21-4.14,1.93,23.4,50.22c1.32-4.21.9-8.87-.99-12.94Z"/>
      <polygon class="cls-3" points="193.5 139.11 196.05 154.44 198.87 154.44 198.87 146.03 205.28 139.11 193.5 139.11"/>
      <path class="cls-3" d="M193.71,242.44l25-53.67-4.13-1.93-24.24,52.03c.85,1.58,1.95,2.91,3.37,3.57Z"/>
      <path class="cls-3" d="M124.99,188.76l25,53.67c1.42-.66,2.52-1.99,3.37-3.57l-24.24-52.03-4.13,1.93Z"/>
      <path class="cls-3" d="M190.19,223.2c-1.9,4.07-2.31,8.72-.99,12.94l23.4-50.22-4.14-1.93-18.27,39.21Z"/>
    </g>
  </g>
</svg>