<?xml version="1.0" encoding="UTF-8"?>
<svg id="Layer_2" data-name="Layer 2" xmlns="http://www.w3.org/2000/svg" viewBox="0 0 343.7 418.25">
  <defs>
    <style>
      .cls-1 {
        fill: #181818;
      }

      .cls-2 {
        fill: #bba185;
      }
    </style>
  </defs>
  <g id="Layer_3" data-name="Layer 3">
    <g>
      <polygon class="cls-1" points="274.25 167.53 295.56 146.23 295.56 48.14 193.16 48.14 171.85 69.45 150.54 48.14 48.14 48.14 48.14 146.23 69.45 167.53 48.14 188.84 48.14 251.45 155.07 358.39 171.85 341.61 188.63 358.39 295.56 251.45 295.56 188.84 274.25 167.53"/>
      <path class="cls-2" d="M343.7,167.53l-17.67-17.67V17.67h-136.5L171.85,0l-17.67,17.67H17.67v132.19L0,167.53l17.67,17.67v78.87l154.18,154.18,154.18-154.18v-78.87l17.67-17.67ZM191.01,384.7l-19.16-19.16-19.16,19.16-124.84-124.84v-74.65l17.67-17.67-17.67-17.67V27.85h126.33l17.67,17.67,17.67-17.67h126.33v122.02l-17.67,17.67,17.67,17.67v74.65l-124.84,124.84Z"/>
    </g>
    <g>
      <polygon class="cls-2" points="176.14 180.3 234.02 155.28 194.55 151.21 179.13 115.04 171.9 176.34 165.9 114.06 149.92 150.38 110.76 153.95 166.96 179.68 105.75 166.09 135.34 192.53 126.62 230.87 168.72 185.12 136.62 239.33 170.95 219.42 204.68 239.63 174.59 185.95 215.94 232.69 207.53 193.91 237.12 168.02 176.14 180.3"/>
      <polygon class="cls-2" points="229.25 187.13 219.34 196.09 228.39 239.13 209.99 252.51 192.61 242.52 181.03 249.18 210.72 266.24 241.23 244.07 235.01 214.55 229.25 187.13"/>
      <polygon class="cls-2" points="201.2 140.26 244.93 144.95 251.96 166.59 237.1 180.03 239.85 193.1 265.25 170.14 253.6 134.28 232.55 132.02 195.74 128.08 201.2 140.26"/>
      <polygon class="cls-2" points="160.47 100.12 183.23 100.12 191.42 118.41 204.7 119.84 190.7 88.58 153 88.58 134.68 129.5 134.68 129.5 129.22 141.69 142.5 140.26 160.47 100.12"/>
      <polygon class="cls-2" points="171.85 230.6 133.71 252.51 115.31 239.13 119.43 219.52 109.52 210.57 102.47 244.07 132.98 266.24 154.2 254.04 183.43 237.25 171.85 230.6"/>
      <polygon class="cls-2" points="121.61 209.16 124.36 196.09 91.74 166.59 98.77 144.95 118.69 142.82 124.15 130.63 90.1 134.28 78.45 170.14 104.57 193.75 121.61 209.16"/>
    </g>
  </g>
</svg>