<?xml version="1.0" encoding="UTF-8"?>
<svg id="Layer_2" data-name="Layer 2" xmlns="http://www.w3.org/2000/svg" viewBox="0 0 343.7 418.25">
  <defs>
    <style>
      .cls-1 {
        fill: #181818;
      }

      .cls-2 {
        fill: #bba185;
      }
    </style>
  </defs>
  <g id="Layer_3" data-name="Layer 3">
    <g>
      <g>
        <polygon class="cls-1" points="274.25 167.53 295.56 146.23 295.56 48.14 193.16 48.14 171.85 69.45 150.54 48.14 48.14 48.14 48.14 146.23 69.45 167.53 48.14 188.84 48.14 251.45 155.07 358.39 171.85 341.61 188.63 358.39 295.56 251.45 295.56 188.84 274.25 167.53"/>
        <path class="cls-2" d="M343.7,167.53l-17.67-17.67V17.67h-136.5L171.85,0l-17.67,17.67H17.67v132.19L0,167.53l17.67,17.67v78.87l154.18,154.18,154.18-154.18v-78.87l17.67-17.67ZM191.01,384.7l-19.16-19.16-19.16,19.16-124.84-124.84v-74.65l17.67-17.67-17.67-17.67V27.85h126.33l17.67,17.67,17.67-17.67h126.33v122.02l-17.67,17.67,17.67,17.67v74.65l-124.84,124.84Z"/>
      </g>
      <g>
        <polygon class="cls-2" points="240.02 199.82 251.96 229.42 171.85 280.73 91.74 229.42 103.68 199.82 67.62 230.43 171.85 305.42 171.85 305.41 171.85 305.42 276.08 230.43 240.02 199.82"/>
        <polygon class="cls-2" points="171.85 237.85 171.79 237.81 149.85 253.88 171.79 269.95 171.85 269.91 171.9 269.95 193.85 253.88 171.9 237.81 171.85 237.85"/>
        <polygon class="cls-2" points="197.05 221.23 212.85 232.59 212.85 153.39 197.05 140.3 197.05 221.23"/>
        <polygon class="cls-2" points="154.44 161.71 163.73 153.98 164.33 153.47 164.33 118.71 171.79 112.54 171.85 112.59 171.91 112.54 179.37 118.71 179.37 153.47 179.97 153.98 189.26 161.71 189.26 125.34 201.21 136.8 201.14 124.87 189.26 113.57 189.26 103.67 171.91 89.22 171.85 89.26 171.79 89.22 154.44 103.67 154.44 113.57 142.56 124.87 142.48 136.8 154.44 125.34 154.44 161.71"/>
        <polygon class="cls-2" points="146.65 140.3 130.85 153.39 130.85 232.59 146.65 221.23 146.65 140.3"/>
        <path class="cls-2" d="M164.33,231.43v-46.9l7.41,4.97.06-.04.05.04.05-.04.06.04,7.41-4.97v46.9l25.94,18.53,17.31-11.09-9.77,4.21-23.59-16.78v-54.2s-10.87-9.29-10.87-9.29c2.19,7.99.63,9.64-6.49,13.11-.02,0-.04-.02-.05-.03-.02,0-.04.02-.05.03-7.11-3.48-8.67-5.12-6.49-13.11l-10.86,9.29v54.2s-23.61,16.78-23.61,16.78l-9.77-4.21,17.31,11.09,25.94-18.53Z"/>
      </g>
    </g>
  </g>
</svg>