<?xml version="1.0" encoding="UTF-8"?>
<svg id="Layer_2" data-name="Layer 2" xmlns="http://www.w3.org/2000/svg" viewBox="0 0 343.7 418.25">
  <defs>
    <style>
      .cls-1 {
        fill: #181818;
      }

      .cls-2 {
        fill: #bba185;
      }
    </style>
  </defs>
  <g id="Layer_3" data-name="Layer 3">
    <g>
      <polygon class="cls-1" points="274.25 167.53 295.56 146.23 295.56 48.14 193.16 48.14 171.85 69.45 150.54 48.14 48.14 48.14 48.14 146.23 69.45 167.53 48.14 188.84 48.14 251.45 155.07 358.39 171.85 341.61 188.63 358.39 295.56 251.45 295.56 188.84 274.25 167.53"/>
      <path class="cls-2" d="M343.7,167.53l-17.67-17.67V17.67h-136.5L171.85,0l-17.67,17.67H17.67v132.19L0,167.53l17.67,17.67v78.87l154.18,154.18,154.18-154.18v-78.87l17.67-17.67ZM191.01,384.7l-19.16-19.16-19.16,19.16-124.84-124.84v-74.65l17.67-17.67-17.67-17.67V27.85h126.33l17.67,17.67,17.67-17.67h126.33v122.02l-17.67,17.67,17.67,17.67v74.65l-124.84,124.84Z"/>
      <g>
        <path class="cls-2" d="M212.69,141.23h-17.04c-.53,0-.97-.39-1.05-.91-1.77-11.89-10.85-24.39-18.78-24.51-2.27-.03-13.62,15.97-20.64,17.26-.8.15-1.48-.59-1.25-1.38,1.86-6.49,9.94-12.56,9.27-17.66-.3-2.31-3-3.51-5.06-2.4-7.81,4.21-18.29,15.8-24.87,15.79-1.25,0-3.48-.48-3.72-1.71-.29-1.46,10.6-14.65,12-17.89.9-2.09.46-5.03,1.01-5.93.26-.42,7.75-4.06,8.86-4.49,8.93-3.47,24.69-2.03,33.44,1.86,18.14,8.06,26.23,24.51,28.88,40.71.11.65-.41,1.25-1.07,1.25ZM144.65,110.09c-.11.74.57,1.4,1.3,1.2,3.1-.85,6.98-6.05,3.37-7.43-2.95-1.12-4.28,3.5-4.67,6.23Z"/>
        <path class="cls-2" d="M158.53,174c-.22,0-10.04.08-10.25.08-.17,0-8.96.07-9.13.07-.2,0-.43-.05-.63-.19-.09-.06-.17-.14-.24-.24-2.63-3.57-19.13-28.46,14.12-51.78.95-.67,2.17.42,1.57,1.42-4.99,8.34-12.32,27.22,5.39,48.87.58.71.1,1.77-.81,1.77Z"/>
        <path class="cls-2" d="M218.59,212.86c-1.92-1.97-4.22-3.71-6.85-5.17-.04-.02-.08-.04-.12-.07l-39.87,69.06-13.2-22.86c-3.21,1.8-6.53,3.36-9.9,4.64l23.1,40.02,39.6-68.58,8.82-15.28c-.49-.6-1.01-1.2-1.58-1.78ZM152.98,146.87c.58,3.32,1.74,6.98,3.74,10.9h83.7l-12.44,21.53c3.23,1.81,6.27,3.86,9.06,6.12l22.26-38.56h-106.32ZM115.49,179.25l-12.4-21.48h22.44c-.39-3-.41-6.24.13-9.63.07-.43.14-.85.23-1.27h-41.67l22.23,38.52,16.82,29.13,8.58,14.86c3.14-.62,6.73-1.89,10.35-3.87l-10.34-17.92-16.36-28.33Z"/>
        <path class="cls-2" d="M200.56,203.79l-3.01-.53-17.27,29.91-4.08,7.06-4.44,7.7-1.33-2.31c-1.65,1.38-3.36,2.71-5.12,3.95l6.45,11.18,32.41-56.13c-1.17-.34-2.38-.61-3.61-.82ZM160.4,163.91c1.38,2.01,2.99,4.08,4.85,6.2l.18.21h51.14l-1.9,3.3c1.53.47,3.04.99,4.52,1.56.54.2,1.07.42,1.61.64l6.87-11.9h-67.26ZM128.82,173.57l-1.87-3.25h2.4c-.91-1.86-1.79-4.02-2.52-6.41h-10.98l6.84,11.85,16.62,28.8,9.51,16.46c1.26-1.01,2.49-2.13,3.68-3.35l1.12-1.15-7.68-13.3-17.13-29.67Z"/>
        <g>
          <path class="cls-2" d="M201.47,181.6c.3-.66-.16-1.41-.88-1.45-2.36-.15-4.86-.23-7.48-.22-2.78,0-5.41.11-7.89.28-.38.03-.7.25-.86.59-1.33,2.89-2.9,5.99-4.78,9.22-1.83,3.15-3.68,5.99-5.48,8.52-.21.29-.25.65-.11.98.89,2.11,1.99,4.39,3.34,6.79,1.43,2.53,2.91,4.76,4.33,6.69.41.56,1.25.56,1.66,0,3.21-4.44,6.53-9.46,9.78-15.08,3.33-5.74,6.08-11.24,8.36-16.32Z"/>
          <path class="cls-2" d="M171.82,194.36c.36.04.69-.09.92-.37,1.44-1.81,2.99-4.01,4.47-6.6,1.17-2.06,2.11-4.03,2.85-5.82.27-.65-.18-1.37-.87-1.42-5.7-.42-11.82-.68-18.31-.67-6.35,0-12.34.25-17.93.67-.73.05-1.17.82-.85,1.48.92,1.91,1.97,3.91,3.17,5.98,1.34,2.31,2.69,4.42,4.02,6.33.22.31.58.47.96.43,3.29-.39,6.99-.65,11.05-.63,3.85.01,7.39.27,10.54.64Z"/>
          <path class="cls-2" d="M169.33,198.42c-.14-.31-.42-.53-.76-.59-2.14-.34-4.58-.6-7.29-.64-3.11-.05-5.91.18-8.32.53-.67.1-1.07.81-.79,1.43,2.32,5.31,5.18,11.09,8.7,17.16,3.33,5.74,6.74,10.83,10.01,15.28.42.58,1.29.55,1.69-.05,1.24-1.87,2.49-3.87,3.73-6.01,1.48-2.55,2.77-5.01,3.92-7.35.17-.34.13-.73-.09-1.04-1.96-2.75-3.98-5.85-5.97-9.3-1.89-3.3-3.49-6.46-4.84-9.41Z"/>
        </g>
        <path class="cls-2" d="M247.83,223.78c-.44,9.68-5.74,19.28-13.84,25.05-5,3.56-11.27,5.37-18.27,5.37-2.17,0-4.41-.17-6.71-.53-.75-.11-1.14-.96-.76-1.61l7.99-13.84h0c3.45-.07,6.39-.86,8.51-2.36,4.13-2.94,6.95-7.97,7.18-12.8.13-2.74-.57-5.68-1.98-8.58-1.25-2.57-3.06-5.12-5.37-7.47-2.41-2.47-5.36-4.73-8.76-6.62-3.2-1.78-5.9-2.71-7.76-3.34-2.11-.71-4.02-1.21-5.64-1.57-.71-.16-1.05-.94-.7-1.57,1.05-1.88,2.11-3.91,3.14-6.08,1.07-2.24,2-4.41,2.82-6.47.2-.5.72-.78,1.25-.65,2.11.53,4.56,1.27,7.23,2.3,3.89,1.51,6.68,3.04,7.62,3.56,3.26,1.82,6.28,3.92,8.99,6.24,2.26,1.92,4.3,4,6.1,6.2,6,7.3,9.37,15.95,8.96,24.78Z"/>
        <path class="cls-2" d="M166.35,236.21c.26.42.19.98-.16,1.34-4.05,4.09-6.15,5.77-11.32,8.73-.5.29-1.01.57-1.51.84-.36.19-.72.39-1.09.57-.36.18-.72.37-1.09.54-.36.18-.73.36-1.1.53-1.68.8-3.37,1.5-5.09,2.12-1.68.62-3.38,1.16-5.08,1.61-4.28,1.14-8.42,1.7-12.33,1.7-7,0-13.27-1.81-18.27-5.37-8.09-5.77-13.4-15.36-13.84-25.05-.39-8.38,2.63-16.6,8.08-23.67.47-.6,1.41-.53,1.79.13l8.11,14.05s0,0,0,0c-1.47,2.96-2.19,5.96-2.06,8.75.22,4.84,3.04,9.86,7.17,12.8,2.16,1.54,5.18,2.33,8.7,2.37,1.72.03,3.56-.13,5.48-.48.24-.04.49-.08.73-.14,1.81-.34,3.68-.86,5.58-1.53.8-.28,1.6-.59,2.42-.92,1.32-.54,2.65-1.17,3.97-1.87.26-.13.52-.28.78-.42.22-.12.44-.23.65-.36,2.21-1.25,4.4-2.71,6.52-4.38,1.42-1.11,2.38-1.91,3.72-3.21.49-.48,1.3-.39,1.66.19l7.59,11.11Z"/>
      </g>
    </g>
  </g>
</svg>