<?xml version="1.0" encoding="UTF-8"?>
<svg id="Layer_2" data-name="Layer 2" xmlns="http://www.w3.org/2000/svg" viewBox="0 0 343.7 418.25">
  <defs>
    <style>
      .cls-1 {
        fill: #181818;
      }

      .cls-2 {
        fill: #bba185;
      }
    </style>
  </defs>
  <g id="Layer_3" data-name="Layer 3">
    <g>
      <polygon class="cls-1" points="274.25 167.53 295.56 146.23 295.56 48.14 193.16 48.14 171.85 69.45 150.54 48.14 48.14 48.14 48.14 146.23 69.45 167.53 48.14 188.84 48.14 251.45 155.07 358.39 171.85 341.61 188.63 358.39 295.56 251.45 295.56 188.84 274.25 167.53"/>
      <path class="cls-2" d="M343.7,167.53l-17.67-17.67V17.67h-136.5L171.85,0l-17.67,17.67H17.67v132.19L0,167.53l17.67,17.67v78.87l154.18,154.18,154.18-154.18v-78.87l17.67-17.67ZM191.01,384.7l-19.16-19.16-19.16,19.16-124.84-124.84v-74.65l17.67-17.67-17.67-17.67V27.85h126.33l17.67,17.67,17.67-17.67h126.33v122.02l-17.67,17.67,17.67,17.67v74.65l-124.84,124.84Z"/>
      <g>
        <path class="cls-2" d="M250.97,139.53v130.94l-11.31-19.58c-.59-1.03-.9-2.19-.9-3.37l-.02-91.2-6.59,4.27v77.29l-11.33-19.61c-.59-1.03-.9-2.19-.9-3.37v-46.38l-6.59,4.27v1.56l.03,31-.03-.06-3.29-5.71-8.03-13.92c-.59-1.03-.9-2.19-.9-3.37v-4.95c-3.2,4.04-5.2,7.65-6.44,10.2-2.48,5.12-2.83,7.96-5.5,13.82-1.89,4.14-3.82,7.33-5.15,9.38l12.81,26.31c.56,1.15.41,2.53-.37,3.55-2.17,2.83-4.52,5.3-6.99,7.35-.61-2.39-1.46-5.12-2.68-8.06-1.23-2.95-2.57-5.49-3.84-7.6l3.3,18.03c-3.63,2.37-7.49,3.86-11.53,4.35-.11-2.29-.35-4.84-.82-7.58-.54-3.23-1.27-6.75-2.05-9.24-.78,2.49-1.51,6.01-2.05,9.24-.46,2.75-.71,5.29-.82,7.58-4.04-.49-7.9-1.98-11.53-4.35l3.3-18.03c-1.27,2.12-2.61,4.65-3.84,7.6-1.22,2.94-2.07,5.67-2.68,8.06-2.48-2.05-4.82-4.52-6.99-7.35-.78-1.02-.94-2.39-.37-3.55l12.81-26.31c-1.33-2.05-3.26-5.24-5.15-9.38-2.67-5.86-3.03-8.7-5.5-13.82-1.24-2.55-3.24-6.16-6.44-10.2v4.95c0,1.18-.31,2.34-.9,3.37l-8.03,13.92-3.29,5.71-.03.06.03-31v-1.56l-6.59-4.27v46.38c0,1.18-.31,2.34-.9,3.37l-11.33,19.61v-77.29l-6.59-4.27-.02,91.2c0,1.18-.31,2.34-.9,3.37l-11.31,19.58v-130.94l1.54-.29c5.08-.94,10.63-1.47,15.63-1.47,2.01,0,3.92.08,5.65.25,7.37.7,14.81,1.96,21.66,3.64,2.07.51,4.1,1.06,6.05,1.64l2.74,4.8h-28.15l7.66,4.96c1.09.71,2.37,1.09,3.67,1.09h20.28l22.4,39.08,22.4-39.08h20.28c1.3,0,2.58-.38,3.67-1.09l7.66-4.96h-28.15l2.74-4.8c1.96-.58,3.98-1.13,6.05-1.64,6.85-1.69,14.28-2.94,21.66-3.64,1.74-.17,3.64-.25,5.65-.25,5,0,10.55.52,15.63,1.47l1.54.29Z"/>
        <path class="cls-2" d="M237.56,121.48c-1.14-.81-2.5-1.24-3.89-1.24h-38.38c-3.94-7.68-7.95-32.19-15.87-34.62-2.04.23-5.18.48-9.03.34-3.31-.12-6.56-.67-9.85-1.04-6.51-.72-13.21-.86-19.7.33-3.61.66-7.64,2.64-8.42,6.62-.89,4.53,1.53,10.38,0,16.4l6.78-5.98,14.49,4.23-5.31,13.74h-38.34c-1.39,0-2.76.43-3.89,1.24l-13.41,9.48c7.69-1.43,16.44-2.01,23.63-1.32,11.86,1.13,23.25,3.53,32.59,6.63l22.9,40.2,22.9-40.2c9.27-3.1,20.74-5.5,32.6-6.63,7.19-.68,15.94-.11,23.63,1.32l-13.41-9.48ZM151.89,94.97v-.84l12.4-3.57c-2.44,7.31-6.02,6.67-12.4,4.42ZM171.85,153.63l-13.74-24.11,13.74,10.35,13.74-10.35-13.74,24.11Z"/>
      </g>
    </g>
  </g>
</svg>